<?xml version="1.0" encoding="UTF-8"?>
<svg id="Layer_1" xmlns="http://www.w3.org/2000/svg" version="1.1" viewBox="0 0 384.02 105.95">
  <!-- Generator: Adobe Illustrator 29.5.0, SVG Export Plug-In . SVG Version: 2.1.0 Build 137)  -->
  <defs>
    <style>
      .st0 {
        fill: #fff;
      }
    </style>
  </defs>
  <path class="st0" d="M.91,28.34l.65-1.95,1.3-1.82,1.43-1.56,1.56-1.3,3.64-2.21,1.95-1.04,1.95-.65,4.16-1.3,2.08-.52,4.16-.65,4.16-1.04,4.16-1.3,2.08-.52,1.95-.52,5.85-2.73,1.82-1.04,3.64-2.34,1.43-1.56,1.3-1.69.65-.91.65-.39,1.17-.52,1.17-.26.91-.13,1.17-.26L57.59,0h1.17l1.56.13,4.42.52,1.95.52,1.17.39,1.17.78.52.52.13.91-.65,1.56-.52,1.56-.13.91.52.26,1.3-.52.39-.26,1.69-1.43,1.82-1.17,2.08-1.04,1.95-.78,2.08-.78,2.08-.65,2.08-.52,2.08-.39,2.21-.26,2.21-.13,2.21.13,2.08.26,2.21.52,1.82.78,1.82,1.3,1.3,1.69.91,1.95.52,2.08.52,1.04.91.52.65.13.65-.13.78-.39.78-.65.91-.65,1.43-.91,2.34-1.69,2.08-1.04,1.95-1.04,4.16-1.82,2.21-.78,2.21-.65,2.21-.39,2.34-.26h4.42l1.95.26,2.21.52,1.95.78,1.95.91,1.69,1.3,1.43,1.56,1.04,1.95.78,1.95.39,2.21.26,2.08v2.21l-.26,2.08-.65,4.29-.78,4.29-.52,2.08-1.3,4.16-1.04,4.16-1.56,4.03-1.04,4.42-1.56,4.03-1.17,4.29-1.43,4.16-1.56,4.16-.52,2.21-.52,2.08-.52,2.21-.52,2.08-.39,2.34-.13,2.08v2.34l.26,2.08.65,2.08.52,1.04.52.78.91.91.65.52.91.78,1.04.39.39.26.78.91.13,1.04v1.04l-.13,1.17-.13.78-.26,1.3-.26.65-.65,1.3-.26.39-.39.65-.78,1.04-1.43,1.43-1.04.65-1.82,1.3-.52.26-.52.39-1.3.39-1.3.13-1.95-.39-.78-.13-1.3-.39-.78-.26-1.3-.52-1.82-.91-.65-.39-1.04-.65-.65-.39-.91-.65-.78-.78-1.43-1.56-1.04-1.82-.91-1.95-.78-1.95-.52-2.08-.39-1.95-.13-2.21v-2.08l.13-2.08v-4.29l.39-1.95.52-2.21.39-1.95.52-2.08.78-4.16,2.6-8.06.91-4.16,1.43-3.9,1.17-4.16,1.3-4.03,1.04-4.03,1.69-4.29.52-2.08.52-2.21.65-2.34.39-2.08.39-2.47v-1.04l-.13-1.04-.26-1.17-.65-.91-.65-.52-1.3-.52h-.78l-1.17.13-1.43.39-.91.26-1.17.52-.65.26-1.04.65-2.6,1.69-1.69,1.3-1.56,1.43-1.43,1.56-1.17,1.69-1.17,1.82-1.04,1.82-1.69,3.9-.78,1.95-1.17,4.16-1.43,4.03-1.04,4.16-1.43,4.03-1.04,4.03-1.43,4.03-1.17,4.16-1.17,4.03-1.04,4.16-1.17,4.03-1.17,4.16-1.3,4.03-.52,2.21-.26,1.17-1.04,3.12-.26.65-.39,1.04-.39.65-.78.52-1.04.39-1.17.39-1.04.26-.78.13-2.08.26-1.95.13h-4.16l-1.95-.13-1.17-.26-.91-.26-1.04-.39-.78-.39-.91-.52-.78-.78-.26-.91v-.91l1.3-4.16,1.56-4.16,1.04-4.16,2.6-8.32,1.04-4.16,2.47-8.32,2.34-8.32,1.56-4.16,1.04-4.16,1.43-4.16,1.04-4.16,1.56-4.16.52-4.42.39-2.34.13-1.95-.91-2.34-1.69-1.17h-1.95l-2.47.65-1.95.78-2.21,1.04-1.69,1.17-1.82,1.56-1.56,1.56-2.86,3.38-1.43,1.82-1.04,1.95-.91,2.08-.78,2.08-.65,2.21-1.17,3.64-2.21,7.28-1.17,3.64-2.21,7.93-1.43,4.16-1.04,4.29-1.43,4.16-4.68,16.9-.39,1.17-.52,1.3-.65,1.69-.52.65-.65.52-.91.39-1.17.39-.91.26-1.04.26-1.17.26-.91.13-1.95-.13h-2.08l-1.95-.13h-.78l-1.17-.13-.91-.26-1.17-.39-.91-.26-.78-.39-1.04-.65-.65-.65-.39-.78.13-.91.26-.78.52-2.21.39-1.17,1.43-4.03,1.04-4.16,1.17-4.16,1.3-4.03,1.04-4.29,1.17-4.16,1.43-4.03,1.04-4.16,2.47-7.93,1.04-3.9,1.43-3.9,3.9-11.83v-.91l-.39-.52-.65-.26-.52.13-.39.13-.78.52-.91.52-1.95.78-1.82.52-1.95.52-3.9,1.17-3.64,1.3-1.82.91-1.69,1.04-1.04,1.56-.78,1.95-.39,2.47.26,2.34.52.91.78.78.78.65.91.52.65.13.52.52.26,1.56-.13,1.43-.26.91-.39.78-.52.91-.39.78-.39.65-.78.91-.78.52-.78.26-.91.13-1.04.13h-2.99l-1.04-.13-.39-.13-1.69-.26-1.82-.78-3.77-1.56-1.69-1.04-1.43-1.43-1.17-1.69-1.04-1.69-.91-1.82-.52-1.82L0,34.45l.13-1.95.26-2.08.52-2.08h0ZM5.33,29.25l-.13.26-.26.26v.52l.52.13.39-.26.39-.13.13-.78-.26-.78v-.13h-.13l-.13.13-.26.52s-.26.26-.26.26ZM5.33,31.98l-.26.39v.26l.13.26v.52l.13.52.13.39v.13l.78.26h.13l.26.13v.13l.13.26v.26l.13.13h.26l.13-.39.13-.26v-.26l.13.13h.13l.26.26.13.26.13-.13v-.52l-.13-.39v-.39h-.52v.13h-.26l-.26-.26-.26.13h-.13l-.13-.52v-.39l-.13-.39v-.39l.13-.13v-.13l-.13-.26h-.78s-.26.26-.26.26ZM6.37,37.83l.26.13v-.26l.13-.26h-.39l-.39.26s.39.13.39.13ZM7.28,26.65l.26-.26-.26-.13-.13.13-.26.13-.26.26v.13h.13s.52-.26.52-.26ZM7.41,29.12l-.39.39v.26l.13.39,1.04.65.26-.13h.52l.13.13v.78l-.65-.39-.39.26-.26.26-.39.13-.26.13v.52l.13.13.26.13h.39l.13-.13.52.13h.26l.52.52.39.13.13-.26.26-.13h.78l-.13.13-.13.26h-.13l-.26.39.13.13.26.13.13-.13.26-.13v-.39l.13.13.39-.26.26-.26-.13-.13v-.26l-.26-.26h-.26l-.26-.13v-.13l.13-.26v-.13l-.52-.65-.52-.13h-.65v-.13l.39-.39v-.13l.13-.26-.13-.26-.13-.13h-.52l-.13.26-.26.13-.26-.26-.26-.39-.13-.39-.26-.39-.39.65v-.13h0ZM8.06,38.22v-.13l-.26-.26-.26-.39-.39.39v.13l.13.26.13.39.13.13.39.13.26.26h.26l-.13-.26-.13-.39s-.13-.26-.13-.26ZM8.45,26.78l.26.13.13-.26.52-.26.13-.13v-.13l-.39-.13-.52.26-.26.26s.13.26.13.26ZM9.1,27.3l-.13.39v.39l.26.13.26-.26h.26l.26.26.39.13h.26l-.13-.26v-1.04l.26-.13v-.26h-.26l-.26.26h-.26l-.13.26-.39-.13-.13.13s-.26.13-.26.13ZM9.75,34.45l-.26-.26-.26-.13-.13.13-.13.26v.26l.13.39.52.13h.39l.13-.13.26-.13-.39-.39s-.26-.13-.26-.13ZM9.36,36.14l-.13.39.26-.13h.39l.52-.39v-.13h-.78s-.26.26-.26.26ZM9.62,37.31l-.26.13v.26l.13.26.13.39.26.13h.13l.13-.26-.13-.13-.13-.26v-.13l-.13-.13.13-.26v-.26l-.26.26ZM10.27,41.08l.13-.13v-.26l-.26-.13-.26.26.13.26s.26,0,.26,0ZM11.96,30.03l-.13-.13-.65-.52-.13.13-.13.26-.13.13-.26.13-.13.39.13.13.13.26h.13l.26-.13.26-.26v-.13h.13s.52-.26.52-.26ZM10.92,35.62l.39-.39h-.26l-.13.13v.26ZM11.7,28.6l.26.13.39-.13.13-.13v-.26l-.13-.13-.13-.26-.13-.39v-.26l-.13-.13h-.13l-.13.39-.13.13-.26.52v.52s.39,0,.39,0ZM11.7,36.66h.13l-.39-.26.26.26ZM11.44,41.08h.13l.13.13.26-.13-.26-.26-.26.26ZM11.83,38.87l.26.26.26-.26v-.26l.26-.39h-.39l-.26.26-.13.26v.13ZM11.96,30.94l.13.13.39.26.26.13h.26l.26.26h.26l.13-.26-.13-.13-.78-.26-.26-.13h-.13l-.13-.13s-.26.13-.26.13ZM13.26,26.26l.26-.13-.13-.26-.39-.13-.13-.13-.13-.39-.39-.13v.39l.52.78s.39,0,.39,0ZM13.13,29.38l-.13-.26-.13-.13h-.26v.13l-.13.13.13.39h.39s.13-.26.13-.26ZM12.87,27.56l.26.26.39.26.39-.13.39-.26.13-.39-.39-.26-.78.39s-.39.13-.39.13ZM13.78,25.22v-.26l-.13-.13-.39.13v.13l.39.39s.13-.26.13-.26ZM13.39,38.61v.26l.13.13h.13l.13-.26-.26-.26s-.13.13-.13.13ZM29.9,45.11l.26.65v1.04l-.13,1.04-.52,1.17-.65,1.17-1.04,1.3-1.3,1.17-.91.65-1.04.39-.65.26-1.3.13-.91-.13-2.08-.26-1.56-.26-.65-.26-1.04-.26-.91-.39-1.56-.52v-.26l-.13-.13v-.13h.13l.13-.26h.91l.91.13h5.2v-.13l1.04-.13,1.69-1.04,1.3-1.3,1.3-1.95.39-.65.13-.52.39-1.17.65-.13h.78l.78.39.39.39ZM15.73,40.56l.13-.26-.26-.26-.39-.13-.13.13-.26.13h.52s.39.39.39.39ZM15.47,25.35l.13-.39v-.52l.26-.26.26-.39v-.13l.13-.13-.39-.39h-.26l-.13.26.26.52-.26.26-.26.52.13.65s.13,0,.13,0ZM15.21,30.42l.39.26-.39-.39v.13ZM16.12,27.82l-.13-.26-.13-.13h-.26v.26l-.13.39-.13.26v.13l.13.13.13-.13.13-.26.39-.39ZM15.34,42.38l.13.26.13-.13v-.26l-.13-.13-.13.13v.13ZM16.77,20.15v-.13l-.13-.13h-.13l-.13.13v.13l.26.13s.13-.13.13-.13ZM17.16,24.31l-.26-.26-.26.13.13.26h.39s0-.13,0-.13ZM17.03,23.01l.26-.26-.13-.13h-.13l-.26.13v.13l.13.13s.13,0,.13,0ZM17.68,21.71l.13-.26h-.13l-.39.13-.13.13-.26.13h.52s.26-.13.26-.13ZM19.37,24.18l.65-.13-.52-.26-.39-.13v-.39h-.13l-.26.13.26.26.13.26s.26.26.26.26ZM19.76,45.11l-.13-.13-.26.13v.26h.13l.26-.13s0-.13,0-.13ZM19.89,20.02l.13-.13-.13-.13v-.13h-.26v.26l.13.13s.13,0,.13,0ZM20.41,40.69l-.13-.13-.26.13v.13l.13.13s.26-.26.26-.26ZM21.71,22.1l-.39-.13.26.26s.13-.13.13-.13ZM21.71,25.74l.13-.26h-.39l-.13.13v.39s.39-.26.39-.26ZM23.53,21.84v-.13l-1.04-.13.52.39h.39s.13-.13.13-.13ZM22.88,40.95l.13-.26-.13-.13h-.13l-.13.13-.13.26v.13h.13s.26-.13.26-.13ZM38.87,25.48v.26l-.91,2.73-.78.65-.78.52-2.08.52-.78.26-2.99.91-.65.26-1.17.52-.91.65-.91.91-.52.65-.52,1.17-.13.91-.52.39h-.52l-.52-.26-.39-.26-.52-.91-.13-.78v-.52l.13-1.17.13-.65.26-.52.52-1.17.52-.65.78-.52,1.43-.78,3.51-1.17,1.82-.52,3.12-.65.39-.13.52-.13.65-.26,1.04-.39.39-.13.39.13s.13.13.13.13ZM24.57,21.45l-.13-.13-.26.13v.13l.13.13s.26-.26.26-.26ZM82.29,16.77l-.13.65-.39.39-.26.39-.65.26-.78.26-.65.39-.78.39-.91.65-.78.39-2.99,2.73-1.56,1.56-1.3,1.56-1.17,1.82-.91,1.82-.91,1.95-.78,1.82-.91,1.95-.91,4.03-1.3,3.9-.91,3.51-1.17,3.38-1.04,3.51-.91,3.12-1.82,7.41-1.43,4.03-2.21,8.32-2.6,8.06-1.04,4.16-.78,2.34-.65,1.69-.78,1.04-1.04.65-1.3.78-1.56.52-1.17.13-1.3.26-2.34.13h-2.47l-2.47-.26-1.04-.13-1.17-.39-1.56-.39-.52-.39v-.39l.13-.26.13-.13.26-.13h.39l.78.13h3.64l1.69-.13,1.95-.39,1.56-.39,1.82-.52,1.43-.65,1.43-1.56.65-1.04.52-1.56.78-2.21,2.21-7.54,2.34-7.54,3.12-11.57,1.43-3.77.91-3.9h.13l1.04-3.51.91-3.38,2.47-7.41.91-4.03,1.56-3.9,1.04-1.82,1.04-1.69,1.17-1.82,1.17-1.69,2.86-2.86,2.21-1.82,1.04-.65.91-.52.39-.26.52-.26.65-.26h.39l.78-.26.78-.13h1.43l.13.13.26.39.13.39h.13v.13l.13.39h0ZM31.72,78.78v-.26h-.39v.39h.13l.26-.13ZM36.14,75.92l.13-.39-.39.13-.13.39.13.13s.26-.26.26-.26ZM38.35,62.27l-.39-.26h-.13l-.13.26.26.39.52.13s-.13-.52-.13-.52ZM40.3,40.69l-.13-.39-.13-.26-.39-.39-.39.39.13.39.39.13s.52.13.52.13ZM39.91,68.51l-.13-.13h-.26v.39l.13.13.13-.13s.13-.26.13-.26ZM40.3,49.92l.26-.13.13-.26.13-.13-.26-.26-.26.26-.13.26v.13s.13.13.13.13ZM40.3,58.76v.91l.78-.65-.13-.78-.13-.26h-.13s-.39.78-.39.78ZM40.82,44.33l.13-.26h-.26l-.13.26.13.39.13-.13s0-.26,0-.26ZM40.95,67.47l.13.52.26.26.39-.39v-.39l-.26-.26-.52.26ZM41.34,65.39l.39.13.13-.39-.39-.26-.39.26v.13s.26.13.26.13ZM42.12,43.16l-.39-.26h-.13l-.13.13.26.39.39.13s0-.39,0-.39ZM42.25,56.42l.39.13.13-.13v-.13l-.39-.26-.39.13.26.26ZM43.16,44.72l.26.26.26-.13.13-.52-.26-.52h-.39l-.39.26-.65.13.39.52s.65,0,.65,0ZM43.81,45.5l-.52-.13-.65.39-.26.78.39.26.52-.13h.52l.39.13-.13-.39v-.52s-.26-.39-.26-.39ZM43.29,50.18l-.26.91v1.04l.26.26.26-.26.26-.13v-.26l.26-.39h.39l.26.26.26.13.13-.26-.13-.26v-.78l-.26-.39-.39-.26-.65-.13s-.39.52-.39.52ZM43.55,67.86l-.26-.13h-.13l-.13.26v.13l.13.26.39-.39v-.13ZM43.68,36.92l.52-.78.65.65h.39l.26-.26.65-.39.26-.78-.39.13-.26.39-.52.13-.39-.26-.52-.65-.65-.39.26.91-.52.65-.13.13v.39h.26l.13.13h0ZM44.07,63.18l-.13.26.26.26h.26l.13-.26-.26-.52s-.26.26-.26.26ZM44.59,43.29h.13l.13-.26h-.26l-.26.13.13.26s.13-.13.13-.13ZM44.72,42.12l.52.26v-.13l.13-.13-.39-.39-.52-.13s.26.52.26.52ZM44.46,48.23l.13.13v.13l.26-.13v-.26l-.13-.13h-.13s-.13.26-.13.26ZM44.72,53.17l.39.39h1.04l.39-.91-.13-.65-.65.26-.65.39s-.39.52-.39.52ZM46.67,61.88l-.39-.13-.39.13h-.39l-.26-.39-.39.26.13.39,1.04.26.52-.13v-.13s.13-.26.13-.26ZM45.89,29.51h-.91l.52.78.91-.26-.52-.52ZM45.76,35.23l.13-.26-.26-.78-.39-.13-.26.26v.26l.26.65s.52,0,.52,0ZM45.63,37.57h.26l.52-.26.13-.65-.52.26-.52.52.13.13ZM45.5,49.01l.26.13.13-.13v-.39l-.13-.13h-.13l-.13.13s0,.39,0,.39ZM45.63,47.71l.26.39.26-.39-.13-.39-.26-.13-.13.13s0,.39,0,.39ZM45.76,33.8l.39-.39v-.39h-.26l-.13.26v.52ZM46.28,44.85l-.26.26v.26l.39.26.39-.39.39-.91-.26-.65-.26.39-.39.78ZM47.06,40.04l.13-.39h-.39l-.39.26.26.26s.39-.13.39-.13ZM46.8,49.53l-.13.65.26.39h.26l.13-.52-.26-.65.65-.65.52-.78h-.39l-.39-.52-.65.13-.39.91.39,1.04ZM47.97,35.75l.39-.52-.39-.26-.52.13-.26.39.13.65s.65-.39.65-.39ZM47.32,41.34l-.13.13.26.39.26.26.26-.13.13-.26.26-.65.13-.78-.91.91s-.26.13-.26.13ZM48.36,52.39l-.52-.13-.52.13v.39l.39.52.52.26.39-.26.13-.65-.39-.26ZM47.97,49.53v.26l.13.26.52-.39.26-.65.13-.13-.26-.26-.39.39s-.39.52-.39.52ZM48.75,23.27l-.65.39,1.04.26-.39-.65ZM48.36,43.81v.39l.26.26.52-.13.26-.39v-.39l-.39-.13-.26.13s-.39.26-.39.26ZM49.01,37.31l.13-.13-.26-.26-.26.13v.39l.13.13.26-.13s0-.13,0-.13ZM49.27,47.19l-.13-.13h-.26l-.13.26v.13l.26.13h.26s0-.39,0-.39ZM49.53,46.15l.26-.26v-.39h-.26l-.26.26v.26l.26.13ZM50.96,34.06h.39l.13-.39-.39-.39h-.52l-.26.39.13.26.26-.13s.26.26.26.26ZM50.57,49.79l.13.26.26.13.26-.26-.13-.26-.13-.13h-.26s-.13.26-.13.26ZM52.13,28.6l.39-.13.26-.52h-1.17v.65l-.78.13-.13.91.52-.52.78-.39.13-.13ZM51.09,46.8v.26l.13.13h.26l.13-.13h-.13l-.13-.13s-.26-.13-.26-.13ZM53.17,45.24l-.52-.13-.52.26.52.26.52-.13s0-.26,0-.26ZM53.3,30.68l-.26-.26h-.13l-.13.13v.39l.26.26s.26-.52.26-.52ZM54.21,34.84l-.52-.26h-.52l.39.65h.52l.13-.13v-.26ZM55.25,23.92v-.26l-.65-.26h-.91l.52.78.78-.13.26-.13ZM54.86,30.55l.26-.52-.13-.52-.39.52-.52.13-.26.39.39.39.52.26.13-.26s0-.39,0-.39ZM54.47,36.53l-.26-.52-.26.52.13.52h.39s0-.52,0-.52ZM56.03,11.96v-.39l-.13-.13h-.13l-.13.26v.26l.13.13s.26-.13.26-.13ZM56.03,19.24h.13l.13-.13-.13-.39-.39-.13v.39s.26.26.26.26ZM56.68,21.71l-.39-.13v.26l.13.26.52.13s-.26-.52-.26-.52ZM59.93,11.05l.13-.13-.13-.26-.13-.13-.13.13-.26.13.26.13.13.13h.13ZM123.76,15.73v1.56l-.13.39-.26.26-.52.65-.91.26-.39.26-1.3.65-1.56,1.04-2.86,2.6-1.17,1.3-1.17,1.43-1.04,1.43-1.04,1.82-1.69,3.9-.65,1.95-2.6,8.45-.91,3.38-2.73,8.19-.91,4.29-1.56,4.03-.91,4.29-1.43,4.03-1.3,4.16-.91,4.16-1.43,4.03-1.17,4.29-.78,2.34-.65,1.69-.78,1.43-1.3,1.17-1.43.65-2.47.78-.65.13-1.82.13-3.9-.13h-1.04l-.78-.13-.91-.13-1.04-.13-.52-.13-1.3-.26-1.3-.52v-.26l-.13-.39.13-.39.26-.26h.78l1.69.13h2.86l1.04.13.78-.13,1.82-.26,1.69-.39,1.69-.65,1.43-.78,1.3-1.17.78-1.3.78-1.56.91-2.47,1.04-4.16,2.47-8.19,1.04-4.16,3.77-12.22,1.04-4.16,1.17-4.03,1.3-4.16,1.04-4.03,1.56-4.03,1.17-4.16.52-1.43.91-2.47,1.04-1.82,1.04-1.69,1.17-1.56,1.04-1.3,1.17-1.43,1.3-1.17,2.08-1.82,1.82-1.3,1.3-.65.65-.26.52-.13.26-.13h.39l.52-.13.39-.13h1.17l.26.13v.13l.26.52h0ZM75.01,81.12l.13.26.26.13.26-.26-.13-.26h-.39l-.13.13ZM77.61,55.77l-.13-.26-.65.39-.13.65-.26.26.39.26.78-1.04v-.26ZM77.35,72.54l-.39.26-.13.39h.39l.26-.26v-.26s-.13-.13-.13-.13ZM78.26,68.25l.39.26.52-.39.13-.65-.13-.26-.52.13-.52-.26-.65.13.65.52.13.52h0ZM78.65,57.98l.26-.52v-.26l-.26-.13-.26.13v.26l-.13.13v.52l.13.13s.26-.26.26-.26ZM79.82,50.83l-.52-.26-.52.13v.39h.52s.52-.26.52-.26ZM78.78,58.89l.26.13h.39l.13-.52-.39-.13-.39.26v.26ZM79.43,57.07v.13l.13.13.26-.13.13.26h.52l.26-.13.26-.39-.39-.13-.52-.13-.39.13s-.26.26-.26.26ZM79.69,77.74l.39-.26v-.39l-.39.26-.13.39h.13ZM80.47,54.73l.13-.13-.13-.39-.26-.13h-.13l-.13.13.26.52s.26,0,.26,0ZM81.12,71.11l-.39-.39h-.13l-.13.13.26.52.52.26s-.13-.52-.13-.52ZM81.25,46.28l.13-.26-.13-.26-.26-.13h-.13l-.13.26.13.26.13.13h.26ZM83.07,49.79v-.52l-.39-.52-.52-.26-.52.26-.13.65.52.39.52.13.52-.13ZM81.9,79.17l.13-.13v-.26h-.39l-.13.26v.13l.13.13.26-.13ZM82.42,52.39l.39.52.52.26.26-.39-.26-.52v-.65l-.13-.65.26-.26-.91.26-.65.65s.52.78.52.78ZM82.68,58.5l-.26-.13h-.13l-.26.65.26.65.39-.52v-.65ZM82.16,72.8l.13.13.13.26.13-.26.13-.13v-.13l-.13-.13-.26.13s-.13.13-.13.13ZM83.72,56.55l-.52-.39-.39.13-.26.78.52.78.52.13,1.04-1.04-.52-.13-.39-.26ZM83.07,55.38l.39.26h.39v-.26l-.39-.13-.39.13ZM83.59,48.62l.52-.26.78-.52.39-.52-.39-.52-1.04.13-.52,1.04s.26.65.26.65ZM84.11,59.15l-.39.52h-.26v.26l.13.39.39.26.26-.13.13-.26.26-.78v-.78l-.52.52ZM84.37,53.95l-.39.65.13.65.39-.52.39-.65-.26-.13s-.26,0-.26,0ZM85.15,42.12l-.13-.39-.39-.13-.39.26-.13.52.13.39.39.13.39-.26.13-.52ZM84.11,66.04v.26l.13.13h.39v-.26l.13-.26-.13-.26-.26.13s-.26.26-.26.26ZM84.76,49.92l-.52.52v1.17l.91.52-.13-.78.13-.65.13-.52s-.52-.26-.52-.26ZM84.63,67.86l-.26.13v.26l.13.26.26-.52s-.13-.13-.13-.13ZM84.5,63.05v.39l.39.13h.13l.13-.26-.26-.65s-.39.39-.39.39ZM84.76,56.16v.65l.39-.39.26-.39-.13-.13h-.13s-.39.26-.39.26ZM86.19,49.01l.39.13.26-.26-.13-.39-.52.13-.13-.13h-.13l-.39-.39h-.39l-.13.13v.26l.39.39.65.13h.13,0ZM85.8,41.99l.13-.65.39-.26.13-.39-.52-.13-.39.39.26,1.04ZM86.06,52.52v-.26l-.13-.26h-.13l-.13.13v.26l.13.13s.26,0,.26,0ZM87.1,56.68h-.52l-.13.52-.26.65-.52.52h1.17l.52-.91v-.26s-.26-.52-.26-.52ZM86.19,50.7v.26h.52l.13-.26v-.26l-.13-.13-.26.13s-.26.26-.26.26ZM87.88,48.23l-.13.52.52.26.39-.52v-1.17l.26-.65-1.04-.13-.91.26.39.26.13.65s.39.52.39.52ZM88.27,54.08l-.65.52-.52.52.52.52,1.04-.13.39-1.04-.13-.65s-.65.26-.65.26ZM89.05,51.61h.26l.13-.26-.26-.26-.26-.65-.39-.65-.39-.13-.26.39-.52.26v.52l.26.52h1.17s.26.26.26.26ZM87.75,28.99l-.13.26v.13l.13.13.26-.13.13-.13-.13-.13v-.26l-.26.13ZM89.44,39.65v-.26l-.78-.26-.13.52.52.26s.39-.26.39-.26ZM89.05,31.46l.39.26.26-.13.26-.26-.13-.39-.26-.39-.52.52s0,.39,0,.39ZM90.61,48.36l-.26.39h-.52l-.26-.26-.26-.13-.13.26.13.26v.91l.39.39.39.26.65.13.52-.52.26-1.04-.13-1.04-.26-.39-.52.52v.26ZM90.09,35.88l-.13.26-.26.78-.13.78.65-.52.39-.52h.26v-.26l-.13-.39-.39-.26s-.26.13-.26.13ZM90.48,45.37h.26l.26-.91v-.91l-.91.65.26.91.13.26ZM90.35,50.96l-.26.26v.39h.26l.13-.26-.13-.39ZM91,52.26l-.13-.13-.26.13-.26.26v.26l.13.13.39-.13.13-.39s0-.13,0-.13ZM94.9,38.61l-.26-.26h-.52v.26l.39.13.39-.13ZM94.77,23.53l.13-.39-.13-.13-.39.26v.52s.39-.26.39-.26ZM95.94,40.43l.13-.13v-.26l-.26-.26h-.26v.52l.26.13s.13,0,.13,0ZM97.37,22.88l.26.13.39-.13.13-.39h-.39l-.39.39ZM99.71,20.15l-.13-.26-.13-.13-.26.13h-.13l.13.39h.39l.13-.13ZM114.66,80.99l.13-.26-.13-.26h-.26l-.26.13-.13.13.52.26s.13,0,.13,0ZM118.56,78.65l.26-.26-.26-.39-.39-.26h-.26l-.13.39.13.39.39.26.26-.13ZM119.08,70.33h-.26l-.39.26-.13.52h.52l.26-.39v-.39ZM119.47,73.19l.78.52.26.39h.26l.13-.26v-.39l-.13-.78-.39-.78-.26-.39-.39.39-.65.13v.26l-.13.39v.52s.52,0,.52,0ZM120.12,84.89l-.65.26-.52.26v1.56l.39.39.26.13.26-.13.26-.26v-.26l-.13-.26v-.13l-.13-.26v-.65l.13-.26s.13-.39.13-.39ZM120.25,64.22h-.52l-.39.39.52.13.39-.26s0-.26,0-.26ZM120.9,61.36l-.13-.26-.26.13-.13.52.13.52.39-.52v-.39ZM121.16,69.94h-.26v.52l.39.78.78.78.26.91.26-1.17-.91-.52.52-.78s-1.04-.52-1.04-.52ZM122.07,65l1.17-.52-1.04-.39-.91-.26-.13.26.13.26s.78.65.78.65ZM121.94,73.84l-.26.78-.26.52.13.39v.39l.13.13.78-.13.13-.91v-.13l-.26-.39-.39-.65h0ZM121.55,77.09l.39.39.52.26v.13l.26.26.39.26-.26.39.26.26.39-.13-.13-.39.26-.39v-.26l.13-.13.39-.13.26-.52-.13-.52-.26-.39-.52.13-.13.39-.39.13h-.39l-1.04.26h0ZM122.98,83.33v-.13l.13-.26-.26-.13h-.52l-.26.26.13.13.13.26h.39s.26-.13.26-.13ZM122.85,87.62l-.52.26v.26l-.13.26.13.13h.26l.26-.52s0-.39,0-.39ZM122.73,91.52l.13-.26-.26-.13h-.26l-.13.13v.26h.13l.26.13s.13-.13.13-.13ZM123.9,58.89l.13-.52-.39-.26-.52.13-.65-.26.26.65.52.39s.65-.13.65-.13ZM123.5,55.77h-.52l-.39.39.26.13h.39s.26-.52.26-.52ZM123.9,84.37h-.91l-.39.78.13.13h.39l.39-.39.26-.13h.65l.13-.13.13-.26-.39-.26s-.39.26-.39.26ZM123.9,62.27l-.39.52-.52.26.91.39.26-.39.13-.52.39-.39-.13-.52h-.39s-.26.65-.26.65ZM124.15,96.33l-.26-.39h-.13l-.26-.13-.26.13-.13.26.26.39h1.04l-.26-.26ZM124.15,69.94l-.26.26v.78l-.26.26.13.39h.78l.52-.26v-.52l-.52-.39-.26-.78s-.13.26-.13.26ZM125.19,53.04l.13-.39.52-.26.13-.39-.39-.13-.39.39-.39.52.39.78s0-.52,0-.52ZM125.19,77.74l-.13.13-.13.26.13.26.65-.26.13-.13.13-.26.13-.39-.26-.26-.52.13s-.13.52-.13.52ZM126.49,88.4l.13-.13-.13-.13v-.13l-.26-.13-.13-.13-.13.26v.26l.26.26.26-.13h0ZM127.66,74.75v-.52l.26-.52.39-.52-.13-.39-.91-.13-.78.52-.13.26v.26l.39.39.52.26.13.26.26.13h0ZM126.75,58.24l.26.13.13-.26-.26-.26h-.39l.13.13s.13.26.13.26ZM128.06,65.91l-.52-.65-.65.39.52.26h.65ZM127.15,60.19l.13.13.26.13.26-.26v-.26l-.26-.26-.52.26s.13.26.13.26ZM127.92,76.57v-.65l-.52.39-.26.52.13.13h.26s.39-.39.39-.39ZM128.19,92.43v-.13l-.39.13-.13.13.13.26v.13l.26-.13.13-.39ZM128.44,45.37h.65l-.13-.26-.13-.13-.26-.13-.13.13-.13.26.13.13h0ZM128.7,53.04l.26-.13-.13-.13v-.13h-.26l-.26.13v.13l.13.13h.26ZM128.7,86.58l.13-.13-.26-.13-.26.26v.26l.13-.13.26-.13h0ZM143.92,91.52l.39.78.26,1.3v.65l-.13.91-.26.78-.13.65-.39,1.3-.78,1.69-.39.91-.52.78-.39.26-.26.39-.65.52-1.43,1.17-2.21,1.43-1.69.52-1.69.39h-1.3l-1.3-.26-.78-.26-1.04-.52-.26-.52v-.26h-.13l.13-.13v-.13l.26-.26,1.17-.13,1.17-.26.78-.39,1.43-.65,2.08-1.43,1.95-1.82,1.3-1.95,1.95-3.77.39-.78.26-.78.91-.39.91-.13.39.39h0ZM130.78,41.73l.26.39.13.13.26-.13.13-.39-.26-.39h-.39l-.13.39ZM131.56,93.47l-.13.39.13.13h.26l.26-.13-.13-.26-.13-.13h-.26,0ZM134.43,48.88l-.26-.13h-.13l-.13.13.26.52h.13v-.26s.13-.26.13-.26ZM153.02,18.46l.13,1.3v1.17l-.13.91v1.04l-.13,1.04-.78,4.16-.39,1.95-.52,2.08-.52,1.95-.91,4.03-2.47,8.06-1.3,3.9-1.43,4.03-2.6,7.93-1.04,4.16-1.3,4.03-1.3,3.9-.13.78-.26,1.43-.26,3.38-.13.78v.52l-.52.52-.65.13-.52-.52-.26-.65-.26-.78-.13-.52-.26-1.3v-.78l.13-2.6.26-2.08.78-4.29.52-2.08,6.89-20.28,1.3-4.03.78-4.29.52-1.3.78-2.21.91-3.77.65-1.69.65-1.82.39-1.95.78-4.42.26-2.34v-2.99l.13-1.69.26-.26.39-.13.26.13.26.26.13.52.39.91.26,1.04.26,1.17.13.78v.78h0Z"/>
  <path class="st0" d="M182.65,47.19l-2.08.52-1.95.65-1.95,1.04-1.69,1.3-3.25,2.99-1.43,1.56-1.17,1.82-2.21,3.77-.91,1.95-.78,3.9-.65,1.95-.39,1.82-.39,2.08v1.82l.52,2.08.65,1.04.39.39,1.17.78.65.26h1.04l.91-.26,1.56-1.17,1.56-1.69,1.3-1.56,1.17-1.82,1.04-1.82.91-1.82,1.95-3.77,1.82-3.77,2.99-7.8.39-.65.78-.52.52-.26.91-.13.52-.13,1.56-.13h.78l2.21.13,1.95.26,4.81,1.17,2.6,1.04,1.04.65.65.65v.65l-1.3,4.29-1.56,4.16-1.43,6.37-.39,1.82v2.21l.26,1.82.26.78.78.91.91.52h.78l.78-.13,1.04-.26.78-.39,1.3-.91,1.82-1.17.65-.65,1.04-.91,1.3-1.69,2.6-3.64,1.3-1.95,1.69-2.99.52-.78.52-.52h.78l.78.26.78.39.39.26.78.39,1.04,1.04.39.52.13.78-4.29,7.02-5.07,6.63-1.43,1.56-1.43,1.43-6.76,4.68-1.95.78-3.77,1.56-2.08.52-1.95.26h-2.08l-2.21-.26-1.82-.65-1.95-.91-1.43-1.56-.78-1.69-.52-2.21-.26-1.95v-2.99l-.39-.39h-.65l-.39.52-1.17,1.69-1.17,1.56-1.3,1.56-1.43,1.43-1.56,1.3-1.56,1.17-1.69,1.04-1.82.91-1.95.52-1.95.39-1.95.26-2.08.13h-2.21l-2.21-.13-2.21-.65-1.95-.91-1.95-1.04-1.69-1.43-1.43-1.56-1.17-1.95-.91-1.95-.78-2.21-.26-2.08-.13-2.34.13-2.21.39-2.21.39-2.08,1.56-5.85.78-1.95,2.73-5.46,1.17-1.69,3.64-4.94,1.43-1.43,1.56-1.43,1.56-1.3,4.94-3.64,5.59-2.6,5.72-2.47,1.95-.39,6.37-.78h2.21l2.21.26h2.21l4.29.52,2.21.39,2.08.52,2.08.65,2.08.78,4.03,1.82,1.82,1.04,2.73,1.95.78.78.39.78v1.04l-.65,1.69-.39.78-.78,1.3-.39.78-.78,1.04-.65.78-1.56,1.04-.78.39-1.17.13-.65-.26-.78-.65-.91-.52-3.77-1.82-3.77-1.56-2.08-.65-1.95-.39-2.08-.13h-2.08l-2.08.13-2.21.26h0ZM180.31,89.18l-.13.52-1.3,1.3-1.43,1.17-1.82,1.04-4.03,1.82-2.08.78-2.08.39-2.21.13-1.95-.13h-1.82l-1.56-.39-1.17-.13-1.04-.26-.65-.39-.39-.65.13-.52.65-.26.91.13.78.13h3.12l2.08-.26,2.08-.65,4.03-1.43,1.82-1.04,1.82-1.17,1.69-1.3,1.04-1.17,1.17-1.04h.65l.39.39.26.52.39,1.04.52,1.04.13.39h0ZM163.15,46.28l-.26-.13-.13.26h.26s.13-.13.13-.13ZM164.58,45.24l.26.13.26-.26h-.26s-.26.13-.26.13ZM180.7,51.35l.13.91-.52,1.95-1.04,2.08-.26.39-1.3,1.3-.52.65-.78.91-1.04,1.69-1.17,1.82-.91,1.82-1.17,2.73-1.04,2.08-.39.91-.26.65-.52,3.25-.13.26-.26.26-.78.65-.78.39-.78.13-.26-.26-.13-.39-.13-.78-.13-.65v-.91l.13-1.3.39-1.82.65-2.21.39-1.95.65-2.08.78-2.08.91-1.82,1.17-1.95,1.17-1.69,1.56-1.56,1.69-1.3.91-.78,2.6-1.82.65.13.52.39h0ZM166.92,46.02l.26-.13-.26-.13-.26.26s.26,0,.26,0ZM172.9,44.2l-.13-.13h-.13l-.26.26v.26l.26.13.13-.13.26-.13-.13-.26h0ZM174.59,38.74l-.26-.13v.26l.13.26.13-.13v-.26h0ZM174.85,41.47l-.13.13-.13.26v.26h.52l.78-.39-.52-.13h-.39l-.13-.13h0ZM175.11,37.7v-.39l-.26.26.26.13ZM176.93,41.47v.26l.26-.13.13-.26-.39-.13h-.13s.13.26.13.26ZM178.75,42.38l-.26.13.13.26.39.13.26-.26v-.13h-.26l-.26-.13h0ZM179.79,39l.13-.26v-.13l-.26.13h-.39l-.52.26.65.26.26-.13s.13-.13.13-.13ZM180.18,42.77l-.26-.13-.26.13-.13.13v.26l.26.26.39-.13.13-.26-.13-.26ZM181.87,37.83l.26.13.13.26-.13.26.13.13.26-.13.13-.13h.39l.13-.39.13-.26v-.52l-.52-.13-.39.13h-.39l-.65.26-.13.26.26.13.13.13s.26-.13.26-.13ZM182.13,39.91l.26-.39h.26l.13-.13v-.26l-.13-.13h-.26l-1.17.26.26.65.39.52v-.26l.26-.26h0ZM183.69,41.99l-.26-.26-.78-.39h-.13l-.13.26.39.65h.52s.39-.26.39-.26ZM182.78,44.33l.13-.13v-.26h-.13l-.13.13.13.26ZM182.91,40.95l.26.26.26-.39-.13-.52v-.26l-.26-.13-.13.26.13.52-.13.26h0ZM184.21,39.26l.26-.26-.26-.52v-.26l.13-.13-.13-.26h-.13l-.13.26-.26.13-.13.13-.26.39v.26l.52.26h.39ZM183.95,37.18h-.13l-.26.26h.52l-.13-.26ZM184.47,39.65l-.26-.13-.26.26.39.26.13-.13v-.26h0ZM184.08,42.12l-.13.39v.39l.13.26.26-.13h.13l.13-.26v-.39l-.13-.39-.39.13ZM184.73,37.05l.13-.13-.26-.26-.39.13.13.13.26.13h.13,0ZM185.25,40.95v-.65l-.26.26h-.39l-.39.13v.26l.39.26s.65-.26.65-.26ZM185.9,42.25l.39-.65v-.39h-.26l-.26.13-.39.13-.26.26-.26-.13.39.52.13.26h.26l.26-.13h0ZM186.55,76.44h.26v-.26l-.13-.13v-.65l-.26-.13-.39-.26h-.39l-.13.13-.13.26v.39l-.13.39.13.39v.39l.26.26.13-.26.13-.13v-.26l.13-.39h.39l.13.26ZM185.25,85.41v.13l.65.13-.39-.39s-.26.13-.26.13ZM185.9,44.07l-.26-.26-.13.39.39.26v-.39ZM185.64,73.84l.13-.26v-.26l-.26.13v.39h.13,0ZM186.68,38.48l.26.13.26-.39-.39-.65h-.26l-.39-.13-.39.26.26.39.52.26s.13.13.13.13ZM186.03,74.23h-.13l-.13.26.13.26.13-.26v-.26ZM186.55,79.82l.26-.39-.39-.78-.13.13-.13.26v.39l.13.39.13.26.13-.26ZM187.46,75.4l.13-.26.26-.13v-.39l-.13-.39-.39.13h-.13l-.52-.26-.13.13v.13l.13.13.13.52.39.26.26.13h0ZM186.68,40.43l.39.26.52-.26-.52-.26h-.39v.26ZM186.81,72.67l.39-.26.65-.65-.26-.39-.65.13-.26.65.13.52h0ZM187.46,85.93v-.13l-.13-.13-.26.13v.39h.26l.13-.26ZM188.11,77.09v-.13l-.13-.26-.26-.26v-.39l-.26-.13-.13.13-.13.26v1.17h.65l.26-.13.39-.13-.39-.13h0ZM187.59,40.56v.26l.13.26.13-.26-.26-.26h0ZM187.98,39.52l-.26.26.26.13.39-.13-.26-.13s-.13-.13-.13-.13ZM187.98,70.72h.26l.26-.78.39-.39h-.78l-.39.78.26.39h0ZM188.89,38.74l.39.26-.13-.65-.91-.26-.26.26.13.39s.78,0,.78,0ZM188.5,40.17l-.13.39-.26.26.13.26h.52l.52-.26v-.39l-.26-.26-.52-.26v.26h0ZM188.24,74.75l.13.13.26-.26v-.13h-.39v.26ZM189.15,76.31l.39-.26-.26-.26h-.52l-.26-.13-.26.13.26.26h.52l.13.26h0ZM188.63,44.46l-.13.13.26.26h.26l.13.13h.13l.13-.13-.26-.26-.26-.13h-.26ZM189.02,82.29v-.13l-.13-.13h-.26l-.13.13v.26h.26l.26-.13h0ZM188.89,42.12v.65l.39.13.13-.13-.26-.52-.26-.13h0ZM189.28,71.24l.26-.26v-.39l-.39.26.13.39ZM189.67,43.81l.26-.13-.13-.13h-.26l-.13-.13h-.13v.39h.39ZM189.54,75.01l.39-.39v-.65l-.65-.26.13.39-.13.26v.52s.26.13.26.13ZM189.93,83.98l-.26-.26-.26-.13-.13-.13v.26l.13.26v.26l.13.13v.26l.13.13.26-.13h.13l.13-.13-.26-.52h0ZM189.41,66.3l.13.39.13-.13h.13v-.26l-.13-.13h-.26v.13h0ZM189.41,72.41h.26l.26-.39v-.39l-.39.26-.13.52h0ZM189.8,76.96l.65-.13.13-.26.13-.39-.26-.39-.39.13-.13.26-.52.52.39.26ZM190.32,40.3h.26l.13-.13.13-.26-.26-.26h-1.04l.78.52v.13h0ZM189.54,69.42l.65-.65h.13l.13-.26-.39-.39-.26.26-.26.52v.52h0ZM189.93,70.07l-.13.26-.26.13.26.13.39.13.26.26h.26l.13-.52-.26-.52-.26-.13s-.39.26-.39.26ZM189.67,40.95v.26l.39.13.39-.26-.39-.13h-.39ZM189.93,64.74h.13l.13-.13v-.26l-.13-.13-.26.26v.13l.13.13h0ZM224.64,69.81l.78.65.65.78v.65l-4.42,7.02-1.17,1.69-2.47,3.25-1.3,1.56-1.56,1.43-3.12,2.73-1.56,1.3-1.69,1.3-1.69,1.04-1.82.91-4.03,1.17-1.95.52-1.95.39-2.08.13h-1.04l-.91-.13-1.17-.39-.52-.13-.91-.39-.78-.39-.13-.39.13-.26.52-.39.65-.13h1.56l1.04-.13h.52l1.95-.39,2.08-.52,1.95-.78,3.64-1.95,1.82-1.04,1.69-1.17,1.69-1.3,1.69-1.43,1.69-1.69,1.43-1.69,1.43-1.82,1.43-1.69,1.43-1.82,2.6-3.64,1.56-2.86.39-.52.39-.26h.39l1.17.78h0ZM190.06,80.08l-.13-.13v.26l-.13.13v.39l.39-.13v-.13l.13-.13-.13-.26h-.13,0ZM190.32,43.16l-.13-.26h-.26v.26l.13.26.26-.26ZM190.19,63.31v-.39l-.26.26v.13h.26ZM190.32,71.37l-.26.13.26.13.26-.13-.26-.13ZM191.23,73.71l-.39-.65-.39-.13-.26.26.26.26v.52l.13.26-.13.26.52-.13.39-.39s-.13-.26-.13-.26ZM190.84,79.43l-.13-.13h-.26l-.13.13v.26l.13.26h.26l.13-.13v-.39ZM190.71,75.4l.26.26.39.13.39-.13v-.39l-.39-.26h-.65v.39ZM190.97,69.68l.13-.13.13-.26-.13-.52-.26.39v.39l.13.13h0ZM191.88,59.93l-.13.13v.39l.26-.26-.13-.26h0ZM192.53,70.72l.13-.26v-.26h-.39l-.39.39.26.13s.39,0,.39,0ZM192.53,72.15l-.39-.13.13.26h.26v-.13ZM192.53,77.22l-.26-.26-.13.13v.26l.39-.13ZM192.66,39.39l.13-.26v-.13h-.26l-.26.13v.13l.13.13h.26,0ZM192.79,61.36l-.26-.26v.39l.26.26.13-.13-.13-.26ZM193.18,56.29v-.13h-.26l-.13.13.26.13.13-.13ZM193.05,69.68l.26-.13v-.13l-.13-.13h-.26l-.13.26.26.13h0ZM192.79,74.36l.26.13.39-.26-.39-.13-.26.26ZM192.92,83.59v.39l.26.13.26-.26v-.13l-.26-.26s-.26.13-.26.13ZM193.57,70.46v-.13l.13-.13v-.13l-.13-.26-.13.13-.13.26v.26h.26ZM194.22,64.35l.39-.13-.39-.39v-.26l-.26-.26-.39.26-.13.39.13.13h.26s.39.26.39.26ZM193.83,57.46l-.13.26.39-.13v-.26l-.26.13ZM194.09,71.24v.13l.13.13.39-.26.13-.39.13-.13-.26-.13-.26.26-.26.39h0ZM194.61,39.65l.13-.13-.13-.26h-.13l-.13-.13-.13.13v.13l.13.13.26.13h0ZM195.26,42.77v.26l-.26.39.13.39.13-.26.13-.13h.39l.13-.26-.26-.39-.26-.13-.13.13h0ZM195.26,60.58l-.13.26h.26l.13-.26h-.26ZM197.47,42.12l.39-.13.26-.39h-.39l-.26.52ZM198.64,44.33l-.39-.13.13.26.26.13v-.26ZM199.16,41.08l-.13-.26h-.26v.26h.39ZM199.16,83.98l.13-.26h-.26l-.26.13.26.13h.13,0ZM206.31,59.8l.65.65.13.78-1.04,4.42-2.73,8.45v.13l-.39.78-.78.65-.52.26-.78.13-.52-.26-.26-1.04.13-1.82.26-1.43.39-1.95,1.17-3.38,1.43-5.59.78-.78.65-.26h.91l.52.26ZM200.85,85.15h.13l.13-.13-.13-.13h-.13l-.26.13.26.13ZM201.63,43.03l-.26-.13.13.39h.26l-.13-.26ZM202.8,42.12v.26l.13.13.13-.13v-.13l-.26-.13h0ZM202.8,46.8h.13l.13-.39h-.26v.39h0ZM202.8,84.24v.26l.26.13v-.13l-.26-.26ZM217.49,49.92l-1.04,2.47-1.43,1.69-1.69,1.43-2.21,1.56-1.69.39-1.04-.39-.26-.13-.78-.52-.26-.65v-.65l1.69-1.04,1.69-1.56,1.17-1.17.91-1.3.78-1.17.65-1.17.39-.39.39-.26.78.13.78.26.26.13.26.26.26.39.39,1.69Z"/>
  <path class="st0" d="M264.03,91.13h-2.08l-2.34-.13-1.95-.52-1.95-1.04-2.21-2.21-.65-1.04-.52-.91-.52-1.04-.26-1.17-.26-.78-.26-2.34-.26-.78-.52-.52-.78-.13-.52.52-.65.91-.52.78-1.17,1.56-1.3,1.56-1.43,1.43-1.56,1.3-3.38,2.08-1.82.78-1.82.65-1.95.52-1.95.26-2.08.13-2.08-.13-2.08-.26-2.08-.39-1.82-.52-1.82-1.17-1.56-1.3-1.43-1.43-1.04-1.69-.91-1.95-1.04-3.9-.39-2.08.13-2.08.26-2.08.13-2.08.26-1.95.52-2.08.52-1.95.78-1.95.65-1.95.91-1.95.91-1.82,1.17-1.82,1.17-1.69,1.04-1.69,1.17-1.69,1.43-1.56,1.56-1.43,1.43-1.43,1.43-1.3,1.56-1.3,1.69-1.17,3.38-2.08,3.64-1.82,3.9-1.04,1.82-.65,1.95-.52,2.08-.26,4.03-.26h1.95l1.3-.13,1.04-.13,1.3-.52.91-1.17.52-1.3.39-.91.52-1.95.65-2.08.78-1.95,1.3-4.16.52-1.95.91-1.95.78-1.95.78-2.08.65-1.95.78-2.08.65-1.95,1.17-3.12.39-.91.78-.78.52-.26,1.69-.52,1.04-.13,2.21-.13h2.34l2.34.13,2.21.26,2.47.39,2.08.52,1.04.39,1.43.78.65.65-.13.78-.26.91-.52,1.04-.91,1.95-.65,1.95-.91,1.95-.65,1.95-.78,2.08-.78,1.82-.78,2.08-.78,1.82-.91,1.95-.65,2.08-.52,1.95-.78,1.95-.91,1.95-.52,2.08-.65,1.95-.65,2.08-.65,1.95-.65,2.08-.65,1.95-.78,1.95-.52,2.08-.65,1.95-.65,2.08-.65,1.95-.65,2.08-.39,2.08-.39,1.95-1.04,4.16-.52,4.16-.39,2.21-.26,1.95.13,2.34.26,1.82.52,1.43.39.65,1.04.52h.78l.78-.13,1.04-.26,1.3-.78.78-.52,1.56-1.43,2.99-3.25,1.43-1.82,1.3-1.82,1.17-1.82,1.17-1.95.39-.91.52-1.04.52-.52h.91l1.04.26,1.17.52,1.17.78.65.65.39.65v.65l-.39.65-.52,1.17-.91,1.82-1.17,1.82-1.04,1.69-1.3,1.56-1.43,1.56-2.34,3.38-1.56,1.43-1.56,1.3-1.43,1.43-1.56,1.43-1.82,1.17-1.69.91-1.95.91-1.82.78-1.95.78-1.95.52-2.08.26h0ZM223.99,55.51l-.13-.26-.13-.13v.13h-.13v.26h.39ZM225.68,53.69h-.39l-.26.26h.26l.26-.13s.13-.13.13-.13ZM250.64,87.75l.13.65v.65l-1.43,1.43-1.69,1.3-1.95,1.17-2.08,1.04-2.21.91-2.21.78-2.34.39-2.34.13h-1.95l-1.82-.13-1.82-.26-1.82-.65-.65-.26-.52-.26-.13-.26v-.26l.26-.26.65-.13,1.04.13h1.3l.26.13,2.34-.13,2.21-.39,2.34-.52,2.08-.78,2.08-.91,1.95-1.04,1.82-1.43,1.69-1.56.91-1.04,1.04-1.04.52-.26h.91l.26.26.52,1.43.65,1.17h0ZM227.89,53.82h-.39l-.26.13.13.13h.26s.26-.26.26-.26ZM232.44,42.9l.13.13v.13h.13l.13-.13v-.39h-.26v.13l-.13.13h0ZM232.44,44.46l.26.13h.13v-.13l-.13-.26-.26-.13v.39ZM232.83,50.7l.13-.13.13-.26-.13-.13h-.39l-.13.26.13.26s.26,0,.26,0ZM253.5,48.88l-.52-1.04-.52-.26-1.17-.13-1.3.26-1.3.52-.78.26-2.21,1.17-1.82,1.43-1.82,1.69-1.56,1.69-1.56,1.95-.91,1.56-1.04,1.95-.91,1.82-.78,1.95-.78,1.82-.52,1.95-.52,2.08-.39,1.95-.13,2.21v1.95l.39,1.17.39.78.78.91.78.39h1.82l2.34-1.17,1.69-1.3,1.69-1.69,1.3-1.69,1.3-1.95,1.17-1.82,1.17-1.95.78-1.82.65-2.34.78-1.82.91-2.08.52-2.08.52-2.21,1.04-3.12.26-.91.26-2.08h0ZM233.22,51.87l-.13.13v.26l.13-.13h.13v-.13s-.13-.13-.13-.13ZM233.74,47.19l.13.26h.26l.26-.26.26-.13.39-.39-.52.13h-.65l-.13.13v.26h0ZM250.12,51.48l.13.13-.39,1.04-.52,1.3-.39.78-2.34,2.86v.13l-.26.26-.13.26-1.3,1.43-1.04,1.43-1.3,2.21-.91,2.34-.91,2.6-.65,2.21-.26.65-.39.65-.52,1.82-.26.52-.13.52-.13.13v.13l-1.17.91-.78.26-.78-.26-.13-1.04v-.91l.13-1.17.26-1.3.52-1.95,1.56-4.42.91-2.6,1.17-2.34,1.3-2.08,1.3-1.69,1.3-1.43,1.56-1.56,1.56-1.17,1.04-.65.91-.52h.52l.39.26.13.26h0ZM235.82,45.89l.13.13.13.26.26-.26-.13-.26h-.26s-.13.13-.13.13ZM236.86,42.9l.78.13.39-.52v-.26l-.13-.13-1.04.78ZM238.42,46.28h-.39l-.13.13.13.26h.39l.26-.26v-.26h-.13l-.13.13h0ZM238.94,40.82h.26l.26.13.13-.26h.39l.13.26v.26l.13.13h.13l.13-.26h.13v-.13l.26-.13h.13v-.78l-.13-.39h-.52l-.39.13-.39.26-.52.52-.13.26ZM239.72,46.15h-.26l-.26.13-.13.26.13.26h.26l.26-.13.13-.26-.13-.26ZM239.98,42.9l.26.13.13.13v-.13l.26-.39.13-.39.13-.13.26-.13-.13-.39h-.39l-.39.39-.26.13-.26.26h-.26l.52.52h0ZM241.28,39.65h.39v-.26h-.26l-.13.26ZM242.58,40.95l-.39-.39v-.52l-.13-.13-.26.26-.26.52-.13.39v.39l.39-.13.26.13.13-.13h.26s.13-.39.13-.39ZM241.93,42.77v-.39h-.39l-.13.26.39.39-.13.39.26.26.13-.13.13-.39-.13-.26-.13-.13h0ZM242.84,44.2l-.39-.13-.26-.13h-.78v.39l.52.52.39-.13.13-.13h.13l.26-.39h0ZM241.67,38.74l.26.26h.26l.13-.13v-.13l-.26-.13-.26.13s-.13,0-.13,0ZM242.58,41.6l-.26.26.13.13h.52v-.26l-.13-.13h-.26ZM242.71,46.41h-.13l-.13.13v.26h.26l.13-.13v-.13l-.13-.13h0ZM243.1,42.64h-.13v.39l.39.13h.13l.52-.39v-.78l-.39.39-.39.13s-.13.13-.13.13ZM243.88,44.33l-.26-.26h-.13l-.13.13-.13.39.13.52.26.13.26-.13.13-.13v-.39l-.13-.26h0ZM243.62,39.26l.26.26.39.13h.52l.26.13.13-.39-.52-.65h-.13l-.26.13h-.39l-.26.39ZM243.62,41.6l.13.13h.13v-.13h.13v-.13l-.13-.13h-.13v.13h-.13v.13ZM245.18,43.42l.13-.39v-.39h-.39l-.13.26-.39.26-.26.39h-.13l.39.39h.26l.26.13v-.13l.26-.52h0ZM245.7,41.34l-.52.13v.13l.13.13h.52l.39-.26s-.52-.13-.52-.13ZM245.31,45.37l.13.39.26.26.13-.13-.13-.26-.39-.26ZM245.96,39.26l.26.26h.13l.13-.13h.52l.52.13-.39-.65h-.91l-.26.39h0ZM246.87,40.56l-.39-.13h-.39v.13l.13.13h.13l.13.13.39-.26h0ZM246.48,41.47h-.13v.39l.26.13v-.26l-.13-.26h0ZM246.87,44.2h.13l.13-.13v-.39h-.13l-.13.13v.39ZM247.65,40.69h-.39l-.26-.13v1.04l.13.26.52-.13.13-.26.26-.26-.13-.39h-.13l-.13-.13ZM247.91,40.04l1.04.26v.13h.13l.13-.13.13-.26v-.26h-.13l-.13-.13-.13.13h-.39l-.65.26ZM248.43,42.77h-.13l-.26-.13.13.39.13.26.26.26h.13v-.26l.13-.13-.39-.39h0ZM248.56,41.47h.39l.13-.26.13-.13h-.39l-.26.13-.13.13.13.13h0ZM248.43,45.24l.39.26.26-.13h.26l.13-.26h-.39l-.26-.13h-.13s-.26.26-.26.26ZM249.6,43.94v-.13h-.65v.39h.26v-.13l.13.13.26-.26ZM249.47,43.29l.26.26.13-.13v-.13l-.13-.26h-.26v.26ZM250.51,38.74h.13l.13.13.26-.13v-.39h-.26l-.13.13-.13.26ZM252.46,38.09l.13.26h.39l.13-.26-.13-.13h-.39l-.13.13ZM254.41,37.57h-.13l-.13-.13-.13.13v.26h.26v-.13l.13-.13h0ZM255.45,41.34l-.26-.13-.39-.13-.13.26.13.13v.13l-.13.39.26.39.13-.26v-.26l.39-.13v-.39ZM256.75,52.26l-.13-.13v-.13l-.39-.26-.39.39.13.39.39.13h.39v-.39ZM257.01,39.65l.13-.39-.39.13-.13.26v.13l.13.13s.26-.26.26-.26ZM257.14,56.16l.26.26v-.13l.13-.13v-.39h-.26s-.13.39-.13.39ZM257.4,61.36l.26-.13.13-.26v-.13l-.13-.13-.26.13-.13.26v.13l.13.13ZM257.53,38.22l.26.26.26-.26-.26-.13h-.26v.13ZM258.31,73.71l-.39-.39-.39-.26v.39l.26.26h.52ZM258.31,54.73h-.26l-.13.13.26.26.39.13v-.39l-.26-.13ZM258.18,41.6l.13.26.39.13-.26-.52-.13.13h-.13ZM258.57,55.9l.39.39h.65l.26.26.13-.13.13-.52-.26-.52h-.39l-.26.39-.26.13h-.39,0ZM259.48,69.55l-.13-.26-.13-.39-.13-.13h-.26v1.17l.13.39.52-.78h0ZM259.74,58.11l.52-.13.39.13-.39-1.17-.52-.13-.52.52-.26.65.39.26.39-.13h0ZM259.48,48.88l.26.13h.13l.52-.65.52.52.39.13.26-.26.65-.52.13-.65-.26.13-.39.39-.52.13-.26-.26-.39-.65-.65-.26.13.78-.39.65-.13.13v.26h0ZM260.39,66.82l-.39-.13-.26.13.26.26h.39v-.26ZM260.65,62.66l.26-.39h.39l.52.26v-.26l-.13-.13v-.78l-.78-.52-.52-.13-.26.52-.26.91.13.91.26.26.26-.26.26-.13-.13-.26h0ZM261.43,53.95v-.13l-.26-.39-.52-.13.26.52.39.26.13-.13h0ZM261.04,54.73l-.13-.13-.13.13h-.13v.13l.13.13h.13v-.13l.13-.13ZM260.91,39.39l.13.26.26.13.13-.13v-.13l-.26-.13s-.26,0-.26,0ZM261.69,46.93v-.39l-.39-.13-.26.26v.26l.26.52.52.13v-.26l-.13-.39h0ZM261.04,59.41l.13.26.26-.26v-.13l-.26-.13h-.13v.26ZM261.95,42.12l-.78.13.52.65.78-.13-.52-.65ZM262.08,74.75l-.13-.26v-.13h-.39l-.26.26.13.13h.65ZM262.34,49.4l.13-.65-.52.26-.39.52.13.13h.13l.52-.26ZM261.82,46.15l.26-.26.13-.39-.13-.13h-.13l-.26.39.13.39ZM262.99,63.96l.26-.78-.13-.52-.52.13-.52.52-.39.52.39.26.91-.13h0ZM262.08,77.22h-.26l-.13.26.13.13h.26v-.39ZM261.95,38.09l.13.13v.13h.26v-.13l-.26-.26h-.13s0,.13,0,.13ZM262.34,59.28l.13-.52-.13-.26-.26-.13-.13.13v.39l.39.39ZM261.95,59.93l.26.13h.13v-.39l-.13-.13h-.26v.39ZM262.6,56.94l.26-.39.26-.78-.13-.65-.26.39-.26.65-.26.26v.26s.39.26.39.26ZM297.96,71.89l-1.17,1.95-1.04,1.95-1.3,1.82-1.17,1.82-1.43,1.82-1.56,1.69-1.3,1.82-1.43,1.69-1.69,1.56-1.69,1.43-1.82,1.3-3.9,2.34-1.95.91-2.08.78-2.21.52-2.21.39-2.21.26-2.08-.13-2.08-.26-1.04-.26-.26-.26-.13-.52.13-.52,1.82-.13,1.82-.39,2.08-.39,1.95-.52,1.95-.78,5.46-2.73,1.69-1.17,1.69-1.3,1.56-1.56,3.12-3.38,1.43-1.82,1.56-1.69,1.43-1.69,2.34-3.9.91-1.56.91-1.43.65-.39.65-.13,1.95,1.43.65,1.43h0ZM262.86,75.79l-.13-.13h-.39v.13h-.13v.26l.13.13h.39l.13-.13v-.26ZM262.73,51.48l-.26.26v.13l.13.13.26-.13.26-.39h-.39ZM264.29,58.89h-.39l-.39-.39-.39.13-.39.78.52.78v.13l-.13.13v.52l.26.39h.13l.13-.13.13-.52-.26-.39.39-.65.39-.78h0ZM262.99,47.84l.13.39.65-.26.26-.52-.26-.13-.52.13-.26.39ZM264.16,52.13l-.78.78-.26.13v.13l.26.39.26.13h.13l.13-.26.26-.65v-.65h0ZM263.64,72.28l-.26-.26h-.13l-.13.13v.39h.52v-.26h0ZM263.64,71.24l.26-.13.13.13h.65l.39-.39-.13-.13h-.26l-.39.13h-.26l-.39-.13-.26.26.26.26h0ZM263.51,42.51h.13v.13l.26-.13v-.26h-.13l-.26.26ZM263.9,75.14h.26v-.13h.13v-.13h-.26l-.13.13v.13ZM265.33,62.92l-.39-.26h-.52l-.39.13v.39l.39.39.52.13.26-.13.13-.65ZM264.29,49.53h.39v-.13l.13-.13-.26-.26-.26.26v.26ZM264.29,55.64l.26.13.39-.13.26-.39v-.26l-.39-.13h-.26l-.26.39v.39ZM264.55,59.8l-.26.52v.26l.13.13.39-.39.26-.52.13-.13-.26-.26-.39.39ZM264.42,36.92l.78.26-.26-.52s-.52.26-.52.26ZM265.07,58.63l.13-.13v-.26l-.13-.13h-.13l-.13.13v.26l.26.13ZM265.33,56.68l-.13.26v.13l.13.13.26-.26v-.26s-.26,0-.26,0ZM265.85,46.15l.13.13h.26l.26.26h.39v-.52l-.26-.26h-.52l-.26.39h0ZM266.37,42.51l.39-.39.65-.26.26-.26.39-.13.26-.39-.13-.13-.26.13-.65-.13v.65l-.78.13-.13.78h0ZM266.76,60.45l.13.26.26-.13v-.39h-.39l-.13.13.13.13ZM267.02,57.98l.26.13v-.13l-.13-.13h-.13l-.13-.13v.26s.13,0,.13,0ZM267.54,80.86l-.13-.13h-.52l.39.39h.26v-.26h0ZM268.58,56.29h-.39l-.52.26.52.13.39-.13v-.26ZM268.32,43.29l-.13.13v.39l.26.13.13-.39-.13-.26s-.13,0-.13,0ZM268.97,47.06l-.52-.13.39.65h.39l.13-.13v-.13l-.39-.26h0ZM269.1,43.42l.26.39.52.26.26-.13v-.39h-.13v-.13l.39-.39-.13-.52-.52.52h-.39s-.26.39-.26.39ZM269.62,48.75l-.26-.52-.26.52.13.39.13.13h.26v-.52ZM269.36,37.05l.52.78.65-.13.26-.13v-.13l-.65-.26s-.78-.13-.78-.13ZM271.57,33.28l.26.26h.13v-.39l-.26-.13s-.13.26-.13.26ZM290.03,12.74l1.3-3.25.65-1.3,1.17-.65,1.43.13,1.04.91.13,1.04-1.82,3.9-.78,2.08-.78,1.95-1.56,4.16-.65,1.95-.78,2.08-1.82,3.9-1.3,4.16-.78,1.95-.65,2.08-.78,2.08-.78,1.95-2.6,8.32-.78,1.95-.65,2.08-.52,2.08-.39,2.08-.78,2.08-.65,2.08-.39,2.21-.26,2.08-.39,2.21-.26,2.08-.26,3.38-.13.78-.39.52-.91.52-.78.26-.65-.13-.52-.52-.13-.78v-2.6l.26-1.82.26-1.69.39-1.82.26-1.95.26-2.21.52-1.95.39-2.08.65-1.95.78-2.08.39-1.95.52-2.08.65-1.95.65-2.08.65-1.95.52-2.08,1.3-4.16.65-1.95.65-2.08,1.56-3.9.78-2.08.78-1.95.65-2.08.65-1.95.78-2.08,2.34-5.85.91-2.08h0ZM272.22,35.88l-.26-.26h-.13v.13l.13.39.39.13s-.13-.39-.13-.39ZM271.96,82.68h.26l.13-.26v-.13l-.13-.13h-.13l-.13.26s0,.26,0,.26ZM272.35,27.04l.13.13h.26v-.52h-.26v.26s-.13.13-.13.13ZM275.86,26.91l.39.39.13-.13v-.26l-.13-.13h-.13l-.26.13Z"/>
  <path class="st0" d="M301.99,73.58l2.34,3.12,1.3,1.17.65.52,1.04.65,1.69.52,1.04-.13,1.04-1.17-.13-1.17-.39-2.34-.13-2.08.65-1.82,1.17-1.43,1.17-1.56.39-1.56v-.65l-.13-1.56-1.17-6.63-.26-2.21-.39-2.34-.78-4.42-.52-2.21-.65-1.95-.91-.52-1.43.26-.78.78-2.6,3.64-1.17,1.82-2.6,3.64-1.3,1.69-1.17,1.95-1.04,1.95-2.34,3.64-1.3,1.95-1.17,1.69-1.43.91-2.08-.52-1.82-1.43-.39-1.56,1.17-1.82,1.3-1.95,1.04-1.95,1.3-1.95,1.04-1.95,1.17-1.82,1.17-1.95,1.3-1.95,1.43-1.69,1.43-1.82,1.3-1.82,1.3-1.69,3.12-3.38,1.43-1.69,1.56-1.69,1.69-1.43,1.82-1.3,1.95-1.04,4.16-1.82,2.08-.52,2.34-.39h2.21l2.21.26,2.08.78,1.95,1.04,1.43,1.69.52,1.95-.26,2.47-.26.78-.78,1.82-.65,1.04-.26,1.69v.65l.78,4.68.78,4.42.52,2.08.52,2.34.65,2.08.52,2.21.39,2.08.39,2.34.26,2.08.13,2.21v4.03l.26,1.3,1.95.65.78-.26.39-.26,1.69-.78,1.69-1.17,1.43-1.3,2.73-2.73,1.3-1.56,2.08-3.38.52-.78.91-.26,1.95.65,1.95,1.43.52,1.43-1.04,2.08-1.17,1.82-1.3,1.95-1.43,1.56-1.43,1.82-1.43,1.56-1.69,1.56-1.69,1.3-2.08,1.17-1.95.91-2.08.65-7.28,1.69-2.86,2.34-1.82,1.3-2.08,1.17-2.21.65-2.34.65-2.21.52-2.34.39h-6.63l-2.21-.39-1.95-.26-2.08-.52-1.95-.78-1.82-1.04-1.69-1.17-1.56-1.3-1.56-1.43-1.3-1.56-1.04-1.82-.78-1.95-.26-1.95.91-2.08,1.3-1.69,1.69-1.56,1.95-1.04,2.08-.39,2.21.13,1.43,1.43.91,1.56h0ZM308.49,53.17l-1.04,1.43-1.17,1.56-1.04,1.95-1.17,1.95-1.43,1.69-1.3,1.95-.65,1.3-.65,1.43-.78.52-.91.39-1.04.13-.91.26-.26-.13h-.26l-.39-.39v-.39l1.3-2.08,1.04-1.69,1.17-1.69,1.04-1.82,1.04-1.69,1.17-1.82,1.04-1.56,1.17-1.82,1.17-1.69,1.3-1.56v-.13l.65-.39.78.13v.13l.13.26v.78l.13.78v.39h.13v1.17l-.26.65ZM359.32,70.46v.78l-2.08,3.38-1.17,2.08-1.43,1.95-1.43,1.69-1.56,1.56-1.82,1.43-1.69,1.17-1.95,1.17-1.95,1.04-2.08.65-2.21.65-2.08.39-2.21.26-1.56,1.3-1.69,1.17-1.69,1.3-1.82,1.04-1.82.91-2.08.78-1.95.65-2.08.39-1.95.26-2.21.26-.91.13h-1.04l-2.08-.26-2.34-.39-2.6-.52-.26-.39-.13-.39.26-.52,1.3-.26h.65l2.08.13,1.95-.13,4.16-.52,3.9-1.04,1.95-.65,1.95-.78,1.69-1.04,1.69-1.17,1.56-1.3,1.56-1.43,2.21-.26,2.08-.39,2.21-.52,1.95-.78,2.08-.78,1.95-1.04,1.82-1.3,1.69-1.3,1.56-1.56,1.56-1.69,3.12-3.9,1.04-1.56.91-1.69.91-.39h1.04l.52.39.39.39.13.65h0ZM311.22,85.93l-.13.26v.13l.13.13h.13l.13-.26v-.13l-.13-.13h-.13ZM315.51,89.83v.13l.26.13h.13l.13-.13v-.13l-.13-.13h-.26l-.13.13ZM316.03,87.62h-.39v.13l.13.13h.26l.39-.13-.39-.13ZM317.07,50.18v.26h.13l.26-.13v-.13l-.26-.26s-.13.26-.13.26ZM317.85,83.59l-.13-.13-.26-.13-.39.13.26.26h.39s.13-.13.13-.13ZM318.89,51.35l.13.26.39.13.13-.26v-.26l-.13-.39-.39-.13-.13.39v.26ZM319.15,66.04l.13.26.13.13h.13l.26-.26-.26-.26h-.26s-.13.13-.13.13ZM319.8,73.97l-.26.13v.39l-.13.13.39.13v-.13l.13-.26.26-.26v-.26h-.26l-.13.13h0ZM319.8,70.59l.39-.13.26-.39h-.52l-.26.26v.13l.13.13h0ZM320.19,62.27l.26.13.26-.13.13-.26-.13-.39-.26-.26h-.26l-.26.39s.26.52.26.52ZM320.71,80.86l-.13-.26-.26-.13h-.13v.13l.13.13.13.26-.13.39.26.39h.39l.39-.39-.13-.26-.52-.26h0ZM320.97,86.58l-.13-.13h-.26v.26l-.13.13h.52v-.26h0ZM320.58,43.68l.39-.39v-.13l.13-.13h-.13l-.13-.13-.13.26-.13.13v.39ZM320.58,59.93v.65l.52.52v-.26l-.13-.26.26-.39-.13-.26s-.52,0-.52,0ZM320.97,84.24h-.39v.39l.13.52.26-.39v-.52ZM321.49,74.62l-.26-.13-.13.13v.13l-.13.13.13.13v.13l.13.13.13-.13v-.26h.13l.13-.13s-.13-.13-.13-.13ZM322.53,68.12l-.13-.39-.52-.13h-.52l-.26.39.13.52h.91l.39-.39h0ZM322.01,56.29l.13-.78.13-.52.26-.13-.13-.13-.39-.26h-.26l-.13.13v.26l.13.65.26.78ZM321.62,72.41l.13.13.26.13.26-.26-.13-.13-.26-.13-.26.26ZM322.27,75.4l-.26-.13-.39.26v.13h.65v-.26h0ZM322.4,67.08l.39-.39.26-.78.13-.52-.52-.26-.78.65v.39l.13.52.39.39h0ZM321.88,74.36v.13h.39l.13.13.39-.13h.13l.26-.26v-.13l-.39-.13h-.52v.26h-.26l-.13.13h0ZM322.14,58.11h.39l.26-.39-.13-.13h-.26l-.39.13.13.39ZM324.09,70.2l-.39-.26-.39-.78-.26-.13.13-.26v-.13l-.65.52-.13.39-.26.39h.13l.39.13.78.52h.52l.13-.39h0ZM323.44,41.86h-.39l-.13.26v.13l.13.13.13-.13.26-.13v-.26ZM323.83,66.56l.52-.13.13-.13h.39l.13-.39-.26-.26-.39.26h-.13l-.13.13-.39-.13-.39.13.13.13v.13l.39.26h0ZM324.87,68.77l-.26-.13-.13-.65-.13-.13v-.26h-.52l-.13.39v.26l.39.78h.91l-.13-.26ZM324.35,39.91l-.13-.26h-.39v.13l.13.26h.26l.13-.13ZM325.91,64.35l-.26-.39-.13-.52v-.13l-.78.39-.52.65.13-.13h.26l.26.52.52.26.26.39h.39l.13-.52-.26-.52h0ZM324.61,74.88l-.13.13-.13.39.26.26.13.26.13-.26v-.65l-.26-.13ZM325.13,72.15h-.39l-.26.13.39.13h.26s0-.26,0-.26ZM325.91,73.58l.13-.13.13-.26-.52.13-.39-.13-.39-.26-.39.26v.65l.26.26.26.13v.13h.52l.13-.13.13-.26.13-.39ZM325,83.72l-.13.13v.26h.26l.13-.13v-.26l-.26-.13v.13ZM325.39,71.76l.13-.39v-.65h-.26l-.13.13-.13.26v.39l.13.26.13.13.13-.13ZM325.78,67.6v-.26l-.13-.13-.26-.13-.26.52.13.13h.26l.26-.13ZM325.65,59.93l-.39.91.78.78.13-.13-.13-.78-.39-.78h0ZM325.78,69.03v-.13l-.26-.26-.13.13v.13l.13.26h.13l.13-.13ZM325.65,81.77v.13l-.13.13.13.26.26-.13h.13v-.13l.13-.26v-.26h-.26l-.26.26ZM325.65,54.73v.13h.39l.26-.26h-.39s-.26.13-.26.13ZM326.56,74.75h-.13v.26l-.26.26-.13.26-.13.13v.13l-.26.13v.13l.13.26.13.13.26.13.26-.13v-.26l.13-.39.13-.26-.13-.39s0-.39,0-.39ZM327.99,67.08v-.26l-.26-.13-.52-.52-.65-.26-.26.13-.13.26-.13.52.13.39.39.26.39-.26h.26l.26-.13.26.13.26-.13h0ZM326.43,72.41l.13-.26h-.39l-.13.39v.13l.13.13v.26l.26-.39s0-.26,0-.26ZM327.6,63.05l-.13.39-.13.13.13.26v.52l-.39.13-.26-.13-.26.13v.26l.26.13.26.52v.13l.13.13h.39l.52.13.52-.13v-.65l-.26-1.04-.52-.78-.26-.13h0ZM326.95,78.65l-.13.13h-.13v.13l-.13.39.26.13h.26l.13-.26-.13-.13v-.13s-.13-.26-.13-.26ZM327.86,55.38l-.13-.26h-.26l-.13.13v.13l.13.13h.39v-.13ZM328.12,72.28l-.52.26v1.04l-.13.39-.13.13v.13l.52-.13.39-.13.13-.52.13-.39v-.26l-.26-.26-.13-.26ZM328.51,69.16l-.39.39-.13.39-.26.39v.26l-.13.26.52.26.39-.13.39-.26v-1.17l-.39-.39h0ZM328.38,66.43l.13.26.26-.13v-.26l-.13-.13-.26-.13s0,.39,0,.39ZM329.16,67.08v.52h.26l.13-.26v-.52h-.13l-.26.26ZM340.34,69.29l-.26.78-.39.52-.91.52-.78-.26-.26-2.86-.39-1.95-.26-1.95-.39-1.82-.52-1.95-.78-3.9-.52-1.69-.65-1.95-.26-1.82-.39-1.95-.39-1.82-.39-1.95-.13-1.17-.26-1.17.26-1.3.52-1.17.78-1.04.65-1.17.26-.78.13-.91.52-.78h.39l.52.26.65,1.3.13,1.3-1.04,2.73-.13,5.98.39,1.95.52,2.21.39,1.95.39,2.08.52,2.08.52,1.95.52,2.21.39,1.82.26,1.69.13,1.69.26,2.34h0Z"/>
  <path class="st0" d="M370.5,76.31l1.82.39,1.82.65,1.69.91,1.3,1.3,1.04,1.56.52,1.82.13,1.95-.39,2.47-1.04,2.08-1.69,1.56-2.21,1.17-2.34.78-2.47.39-1.95-.26-1.69-.52-1.82-.65-1.43-.91-1.43-1.3-.91-1.56-.65-1.69-.13-1.82.26-2.47,1.04-2.21,1.56-1.69,2.21-1.3,2.21-.65,2.6-.26,1.95.26h0ZM361.4,88.14h-.13l-.13.13v.13l.13.13h.13l.13.13h.13l.13.13-.13-.26v-.13l-.26-.26h0ZM362.96,81.77l-.52.52h-.13v.52h.26l.13.13.13-.13v-.13l.26-.26.13-.26.26-.13h.13l-.52-.26h-.13ZM363.09,84.24v.13h.39v-.13l.13-.13h-.39l-.13.13ZM364.52,78l.13-.13v-.13h-.13l-.13-.13v.13l-.13.13v.26h.26v-.13ZM364.39,87.49v.13h-.13v.13h.26l.13-.13v-.13h-.26ZM365.17,83.46v-.13l-.26-.26h-.39v.13h-.13l.26.26h.39v.13l.26.26h.13v-.26l-.26-.13ZM364.91,85.15v.13h-.13v.13l.13.13h.13v-.26s-.13-.13-.13-.13ZM365.17,82.29l-.13.26.26.26.13-.13v-.13l-.13-.26s-.13,0-.13,0ZM366.73,79.04l-.13.13h-.13v.26l.13.13h.26l.26-.26v-.13l-.13-.13h-.26ZM368.16,82.03l-.13-.13v-.39l-.13-.13v-.13l-.13-.13v-.13l-.26.52-.13.13v.26l-.26-.13v.26l.13.13.13-.13v.13h.26l.13.13v.13h.13v.13h.13l.13-.13v-.13h.13v-.26s-.13,0-.13,0ZM367.64,82.94v.39h.13l.13.13h.13v-.39l-.13-.13h-.26ZM368.03,84.24h.13v.13h.13v-.13l-.26-.26v.26ZM368.55,80.86l-.13.13h-.13l.13.13v.26l.13.13h.39l.13-.13.26-.13-.39-.39h-.39ZM383.24,86.32l.26.52.39,1.56.13,1.69-.39,2.47-.91,2.08-1.82,1.69-2.21,1.17-2.34.65-2.47.13-2.08-.13-1.95-.52-.52-.26-.52-.39-.39-.52.13-.26.26-.13,2.47-.26,2.21-.65,2.21-.91,2.08-1.17,1.69-1.69,1.17-1.95.65-1.69.26-1.82.52-.39.65.13.13.13.26.13.13.39h0ZM368.94,83.46l-.13.13v.13l-.13.13v.13l-.13.13v.13h.13v.26h.13l.26-.39v-.52s-.13-.13-.13-.13ZM370.24,80.73l.13-.13h.39l.13-.13v-.13l-.13-.13v-.26l-.13-.13-.26-.13h-.26l-.13.13-.13.26-.26.26h-.13l-.13.26h.65l.26.13h0ZM369.98,87.62l-.13-.13v.13h-.13v.26h.39v-.26h-.13ZM371.41,81.12h-.26l-.13.13h-.26l-.26.13h-.39l-.26.13h.13l.13.13h.13l.13.13.39-.39v.13l.13.13.26.13.13-.13.13-.26h.13v-.13l-.13-.13h0ZM370.63,82.68v-.13h-.13v-.13h-.26l-.13.39v.39h.26l.26-.26h.26l.13.13v-.26l-.13-.13h-.26ZM371.8,80.08l-.13-.13v-.13l-.13-.13h-.13l-.13.26.13.13s.39,0,.39,0ZM371.67,85.41l.26-.13v-.13l.13-.13-.26.13-.26.26s.13,0,.13,0ZM372.32,88.66v.39h.13l.13-.13v-.13h-.13s-.13-.13-.13-.13ZM373.49,86.71h-.26l-.13-.13-.13.13h-.13v.26h.13l.13.13h.39v-.39ZM373.36,90.09l-.13.13.13.13h.13l.13-.13h.26l.13-.13h.13v-.39l-.39.39h-.39ZM373.75,83.33l-.13.39.52-.26.39-.39v-.13h-.78v.39ZM374.27,84.63v-.13l.13-.26v-.13l-.52.26.13.26v.13l.13.13v.26l.13.13.13-.13h.13l-.13-.26v-.13l-.13-.13h0ZM374.53,82.03v.26l.13.13h.13v-.52l-.26.13ZM375.7,86.19l-.13.13h-.26v.39l.26.13.13-.13h.13v-.13h.13l.26.13-.13-.26-.26-.26s-.13,0-.13,0ZM375.7,83.59v.13l.26.26h.13v-.13l-.52-.52.13.26h0ZM375.7,88.27l-.13.13h.26l.26-.26h.13v-.13h-.39l-.13.26Z"/>
</svg>